<?xml version="1.0" encoding="UTF-8"?>
<svg id="Layer_1" data-name="Layer 1" xmlns="http://www.w3.org/2000/svg" version="1.1" viewBox="0 0 100 100">
  <defs>
    <style>
      .cls-1 {
        fill: #ffcd03;
        stroke-width: 0px;
      }
    </style>
  </defs>
  <path class="cls-1" d="M54.52,5.37l8.61,26.51c.63,1.94,2.44,3.26,4.48,3.26h27.88c4.57,0,6.46,5.84,2.77,8.53l-22.55,16.39c-1.65,1.2-2.34,3.33-1.71,5.27l8.61,26.51c1.41,4.34-3.56,7.95-7.25,5.27l-22.55-16.39c-1.65-1.2-3.89-1.2-5.54,0l-22.55,16.39c-3.69,2.68-8.66-.93-7.25-5.27l8.61-26.51c.63-1.94-.06-4.07-1.71-5.27L1.81,43.66c-3.69-2.68-1.8-8.53,2.77-8.53h27.88c2.04,0,3.85-1.31,4.48-3.26l8.61-26.51c1.41-4.34,7.55-4.34,8.96,0h.01Z"/>
</svg>